<?xml version="1.0" encoding="UTF-8" standalone="no"?>
<svg xmlns="http://www.w3.org/2000/svg" xmlns:svg="http://www.w3.org/2000/svg" version="1.1" width="256" height="256" viewBox="0 0 256 256" preserveAspectRatio="xMidYMid meet">
	<path fill="#e38171" d="m129.426 56.739-.67-.284h-.724c-29.024 0-50.516 6.595-58.405 9.43l-1.32.477-.652 1.247C62.82 76.8 46.86 109.502 44.319 144.461c-2.275 31.225 7.99 69.44 12.502 84.42l.826 2.743 2.853-.175c7.43-.44 22.089-1.78 36.756-5.714a5.192 5.192 0 0 1 6.357 3.67c0-.001 5.926-1.432 9.623-2.799 5.33-1.963 9.494-4.082 9.494-4.082l1.01-.569c-15.595-9.586-26.126-20.336-26.548-20.777a5.208 5.208 0 0 1-1.43-3.862c.036-.678.916-16.667 2.962-30.106 1.284-8.42 3.862-17.318 5.816-23.3l.724-2.22-1.724-1.577a36.455 36.455 0 0 1-11.888-26.914c0-20.08 16.328-36.408 36.398-36.408h.817l.743-.348c2.21-1.055 5.889-4.357 5.696-10.072-.192-5.743-3.77-8.751-5.843-9.623z"/>
	<path fill="#f0b7b1" d="m199.233 228.88-.825 2.744-2.853-.175c-10.274-.614-30.18-2.623-47.874-9.246-19.108-7.137-34.454-20.172-40.16-25.455l-.908-.835.706-.762s5.156 4.33 22.006 4.33c10.238 0 17.741-1.605 22.043-2.853 2.505-.733 4.1-3.174 3.807-5.76-.477-4.137-1-6.981-1-6.981l-.11-1.027a5.158 5.158 0 0 0 3.477-1.918 5.127 5.127 0 0 0 1.11-3.816 242.754 242.754 0 0 0-1.294-9.916c-1.284-8.43-3.87-17.318-5.806-23.3l-.725-2.21 1.725-1.578a36.43 36.43 0 0 0 11.897-26.914c0-20.08-16.328-36.417-36.408-36.417l.587-1.027.523-.257c1.972-.945 5.284-3.917 5.1-9.1-.174-5.228-3.357-7.944-5.21-8.714l-.477-.193v-1.036c28.785.082 50.067 6.614 57.882 9.43l1.321.477.651 1.247c4.844 9.192 20.796 41.894 23.337 76.843 2.275 31.161-7.99 69.413-12.512 84.42z"/>
	<path fill="#ffffff" d="M129.307 200.509c-17.016 0-22.446-4.385-22.667-4.569l-.403-.339.037-.532c.009-.174 1.32-17.356 2.687-26.29 1.936-12.76 7.311-27.152 7.366-27.3a5.201 5.201 0 0 0-2.11-6.2 25.551 25.551 0 0 1-3.577-2.697 26.061 26.061 0 0 1-8.65-19.383c0-14.356 11.677-26.033 26.033-26.033 14.356 0 26.024 11.677 26.024 26.033a26.09 26.09 0 0 1-11.962 21.915l-.119.073a5.182 5.182 0 0 0-2.257 6.311c.56 1.514 5.513 15.145 7.366 27.28.459 3 .872 6.193 1.239 9.495a5.184 5.184 0 0 0 5.155 4.614c.193 0 .385-.009.578-.027l.954-.101.174.945c.019.119.541 2.917 1.018 7.044.358 3.11-1.55 6-4.54 6.871-4.532 1.321-12.09 2.899-22.337 2.899z"/>
	<path fill="#a8351a" d="M223.13 143.636c-3.202-43.93-25.4-82.86-26.346-84.503a6.223 6.223 0 0 0-2.917-2.596c-.34-.147-8.402-3.605-22.034-6.678l-1.706-.385-.275-1.725c-3.265-20.199-20.85-34.867-41.838-34.867S89.44 27.542 86.175 47.75l-.275 1.725-1.706.385C70.535 52.941 62.5 56.39 62.169 56.537a6.316 6.316 0 0 0-2.917 2.596c-.944 1.633-23.143 40.573-26.345 84.503-3.045 41.774 14.356 93.115 15.1 95.28a6.23 6.23 0 0 0 5.907 4.202c.935 0 23.19-.166 46.278-6.357 3.311-.89 5.283-4.312 4.403-7.623a6.232 6.232 0 0 0-6.009-4.614c-.54 0-1.082.073-1.614.21-14.576 3.908-29.152 5.238-36.555 5.679l-2.036.12-.587-1.955c-4.504-14.924-14.732-52.993-12.466-84.053 2.531-34.747 18.41-67.293 23.217-76.439l.467-.89.945-.34c7.843-2.815 29.189-9.374 58.057-9.374 28.867 0 50.213 6.55 58.056 9.366l.945.34.468.889c4.806 9.145 20.694 41.7 23.217 76.44 2.256 30.995-7.972 69.1-12.466 84.043l-.587 1.954-2.037-.12c-10.228-.614-30.014-2.614-47.58-9.182-18.934-7.072-34.152-20.015-39.821-25.253l-.908-.844s1.302-17.218 2.678-26.217c1.927-12.65 7.256-26.95 7.302-27.079 1.028-2.76-.027-5.889-2.522-7.448a26.138 26.138 0 0 1-3.44-2.587 25.055 25.055 0 0 1-8.311-18.612c0-13.787 11.219-24.997 24.997-24.997 13.777 0 24.987 11.219 24.987 24.997 0 7.09-3.027 13.879-8.31 18.612-.991.89-2.065 1.706-3.184 2.43l-.1.056c-2.624 1.532-3.753 4.706-2.68 7.586.551 1.495 5.468 14.998 7.302 27.051.45 2.982.872 6.155 1.23 9.449a6.218 6.218 0 0 0 6.87 5.503 6.171 6.171 0 0 0 4.174-2.302 6.224 6.224 0 0 0 1.33-4.577 246.49 246.49 0 0 0-1.302-9.953c-1.294-8.494-3.899-17.447-5.853-23.456l-.514-1.587 1.239-1.128a37.515 37.515 0 0 0 12.237-27.684c0-20.649-16.796-37.445-37.445-37.445-20.648 0-37.435 16.796-37.435 37.445a37.54 37.54 0 0 0 12.228 27.684l1.238 1.128-.514 1.587c-1.954 6.018-4.559 14.97-5.852 23.465-2.064 13.549-2.936 29.528-2.972 30.207a6.244 6.244 0 0 0 1.715 4.632c.807.844 20.144 20.87 47.25 30.996 26.804 10.017 57.167 10.219 58.433 10.228h.028a6.224 6.224 0 0 0 5.889-4.201c.743-2.165 18.144-53.516 15.099-95.28zm-95.107-98.584c-13.08 0-26.877 1.808-26.877 1.808 1.816-12.173 14.778-21.539 26.877-21.539 12.1 0 25.06 9.357 26.877 21.539 0 0-13.796-1.808-26.877-1.808z"/>
</svg>
