<?xml version="1.0" encoding="UTF-8" standalone="no"?>
<svg xmlns="http://www.w3.org/2000/svg" xmlns:svg="http://www.w3.org/2000/svg" version="1.1" width="256" height="256" viewBox="0 0 256 256" preserveAspectRatio="xMidYMid meet">
	<path fill="#a8351a" d="M223.13 143.636c-3.202-43.93-25.4-82.86-26.346-84.503a6.223 6.223 0 0 0-2.917-2.596c-.34-.147-8.402-3.605-22.034-6.678l-1.706-.385-.275-1.725c-3.265-20.199-20.85-34.867-41.838-34.867S89.44 27.542 86.175 47.75l-.275 1.725-1.706.385C70.535 52.941 62.5 56.39 62.169 56.537a6.316 6.316 0 0 0-2.917 2.596c-.944 1.633-23.143 40.573-26.345 84.503-3.045 41.774 14.356 93.115 15.1 95.28a6.23 6.23 0 0 0 5.907 4.202c.935 0 23.19-.166 46.278-6.357 3.311-.89 5.283-4.312 4.403-7.623a6.232 6.232 0 0 0-6.009-4.614c-.54 0-1.082.073-1.614.21-14.576 3.908-29.152 5.238-36.555 5.679l-2.036.12-.587-1.955c-4.504-14.924-14.732-52.993-12.466-84.053 2.531-34.747 18.41-67.293 23.217-76.439l.467-.89.945-.34c7.843-2.815 29.189-9.374 58.057-9.374 28.867 0 50.213 6.55 58.056 9.366l.945.34.468.889c4.806 9.145 20.694 41.7 23.217 76.44 2.256 30.995-7.972 69.1-12.466 84.043l-.587 1.954-2.037-.12c-10.228-.614-30.014-2.614-47.58-9.182-18.934-7.072-34.152-20.015-39.821-25.253l-.908-.844s1.302-17.218 2.678-26.217c1.927-12.65 7.256-26.95 7.302-27.079 1.028-2.76-.027-5.889-2.522-7.448a26.138 26.138 0 0 1-3.44-2.587 25.055 25.055 0 0 1-8.311-18.612c0-13.787 11.219-24.997 24.997-24.997 13.777 0 24.987 11.219 24.987 24.997 0 7.09-3.027 13.879-8.31 18.612-.991.89-2.065 1.706-3.184 2.43l-.1.056c-2.624 1.532-3.753 4.706-2.68 7.586.551 1.495 5.468 14.998 7.302 27.051.45 2.982.872 6.155 1.23 9.449a6.218 6.218 0 0 0 6.87 5.503 6.171 6.171 0 0 0 4.174-2.302 6.224 6.224 0 0 0 1.33-4.577 246.49 246.49 0 0 0-1.302-9.953c-1.294-8.494-3.899-17.447-5.853-23.456l-.514-1.587 1.239-1.128a37.515 37.515 0 0 0 12.237-27.684c0-20.649-16.796-37.445-37.445-37.445-20.648 0-37.435 16.796-37.435 37.445a37.54 37.54 0 0 0 12.228 27.684l1.238 1.128-.514 1.587c-1.954 6.018-4.559 14.97-5.852 23.465-2.064 13.549-2.936 29.528-2.972 30.207a6.244 6.244 0 0 0 1.715 4.632c.807.844 20.144 20.87 47.25 30.996 26.804 10.017 57.167 10.219 58.433 10.228h.028a6.224 6.224 0 0 0 5.889-4.201c.743-2.165 18.144-53.516 15.099-95.28zm-95.107-98.584c-13.08 0-26.877 1.808-26.877 1.808 1.816-12.173 14.778-21.539 26.877-21.539 12.1 0 25.06 9.357 26.877 21.539 0 0-13.796-1.808-26.877-1.808z"/>
</svg>
