<?xml version="1.0" encoding="UTF-8" standalone="no"?>
<!-- Designed by Adharma Collective (@adhrcollective) -->
<svg xmlns="http://www.w3.org/2000/svg" xmlns:svg="http://www.w3.org/2000/svg" version="1.1" width="384" height="128" viewBox="0 0 384 128" preserveAspectRatio="xMidYMid meet">
	<path fill="#a8351a" d="M157.278 71.692c-1.57-21.618-12.496-40.774-12.96-41.582a3.09 3.09 0 0 0-1.43-1.282c-.168-.075-4.135-1.775-10.842-3.29l-.836-.185-.14-.845c-1.607-9.94-10.265-17.16-20.587-17.16-10.321 0-18.98 7.22-20.587 17.16l-.139.845-.836.186c-6.717 1.514-10.674 3.214-10.842 3.289a3.09 3.09 0 0 0-1.43 1.282c-.465.808-11.39 19.964-12.96 41.582-1.496 20.55 7.06 45.82 7.432 46.887a3.074 3.074 0 0 0 2.908 2.072c.464 0 11.408-.083 22.77-3.13a3.063 3.063 0 1 0-1.589-5.918c-7.172 1.923-14.344 2.573-17.985 2.796l-1.004.056-.288-.967c-2.21-7.348-7.246-26.077-6.131-41.36 1.245-17.102 9.058-33.11 11.427-37.615l.232-.436.464-.168c3.856-1.384 14.363-4.608 28.568-4.608 14.204 0 24.711 3.224 28.567 4.608l.464.168.232.436c2.37 4.506 10.182 20.522 11.427 37.616 1.115 15.254-3.92 34.002-6.131 41.35l-.288.966-1.004-.055c-5.035-.298-14.77-1.292-23.41-4.515-9.319-3.484-16.806-9.848-19.593-12.421l-.446-.418s.64-8.473 1.319-12.904c.947-6.225 3.567-13.257 3.595-13.322a3.093 3.093 0 0 0-1.236-3.67 12.308 12.308 0 0 1-5.778-10.433c0-6.782 5.518-12.3 12.3-12.3 6.782 0 12.3 5.518 12.3 12.3 0 3.493-1.486 6.828-4.087 9.16-.493.437-1.013.836-1.561 1.199l-.047.028a3.06 3.06 0 0 0-1.319 3.734c.27.734 2.685 7.386 3.596 13.313.222 1.468.427 3.029.603 4.654a3.06 3.06 0 0 0 3.048 2.722c.111 0 .222 0 .334-.018a3.037 3.037 0 0 0 2.053-1.134c.511-.64.743-1.44.65-2.248-.185-1.71-.408-3.354-.64-4.896-.642-4.18-1.914-8.584-2.88-11.547l-.251-.78.603-.558a18.448 18.448 0 0 0 6.02-13.62c0-10.163-8.268-18.422-18.422-18.422S92.09 46.562 92.09 56.717a18.448 18.448 0 0 0 6.02 13.619l.604.557-.251.78c-.966 2.964-2.239 7.368-2.88 11.548-1.013 6.661-1.44 14.53-1.459 14.864-.046.836.26 1.673.846 2.276.4.419 9.912 10.266 23.253 15.255 13.192 4.924 28.13 5.026 28.753 5.035h.018c1.31 0 2.472-.836 2.899-2.072.362-1.068 8.928-26.328 7.432-46.887zM110.483 23.18c-6.438 0-13.229.892-13.229.892.892-5.992 7.274-10.6 13.23-10.6 5.954 0 12.337 4.608 13.228 10.6 0 0-6.79-.892-13.229-.892z"/>
	<path fill="#a8351a" d="M310.37 116.34c-.474-.594-.707-1.458-.707-2.582v-14.27c0-2.75-.408-4.72-1.217-5.927-.808-1.208-2.136-1.811-3.985-1.811-1.217 0-2.285.362-3.224 1.096a7.281 7.281 0 0 0-2.155 2.722c-.511 1.087-.762 2.137-.762 3.15v15.04c0 1.124-.232 1.988-.706 2.583-.474.594-1.152.9-2.062.9h-5.036c-.92 0-1.662-.306-2.21-.928-.549-.614-.827-1.468-.827-2.555V74.396c0-.809.213-1.431.65-1.85.437-.426 1.05-.63 1.84-.63h5.861c.809 0 1.431.213 1.85.63.426.428.63 1.041.63 1.85v13.74c.958-1.57 2.258-2.852 3.903-3.874 1.644-1.013 3.604-1.524 5.89-1.524 3.038 0 5.472.66 7.283 1.979 1.812 1.32 3.122 3.214 3.911 5.676.79 2.471 1.19 5.519 1.19 9.151v14.214c0 1.068-.316 1.914-.958 2.545-.631.623-1.42.939-2.36.939h-4.756c-.9 0-1.588-.298-2.062-.901zm-46.628-.027c-.557-.613-.826-1.468-.826-2.555V92.64h-5.946c-.79 0-1.403-.213-1.84-.65-.436-.437-.65-1.05-.65-1.84v-3.595c0-.808.214-1.43.65-1.848.437-.428 1.05-.632 1.84-.632h5.946V76.83c0-.809.213-1.431.65-1.85.436-.417 1.05-.63 1.84-.63h5.861c.809 0 1.431.213 1.85.63.426.428.63 1.041.63 1.85v7.246h5.946c.809 0 1.431.214 1.85.632.427.427.63 1.04.63 1.848v3.596c0 .79-.213 1.402-.63 1.84-.428.436-1.041.65-1.85.65h-5.945v21.116c0 1.124-.232 1.988-.706 2.583-.474.594-1.152.9-2.063.9h-5.035c-.92 0-1.654-.306-2.211-.928zm-41.452.065c-1.719-1.273-2.936-3.103-3.633-5.5-.696-2.397-1.05-5.435-1.05-9.123V87.541c0-1.068.316-1.914.957-2.545.632-.623 1.422-.939 2.36-.939h4.757c.9 0 1.588.298 2.062.902.474.594.706 1.458.706 2.582v14.26c0 1.84.177 3.308.53 4.395.353 1.087.9 1.876 1.663 2.36.752.492 1.755.733 3.01.733 1.254 0 2.285-.343 3.223-1.04a6.924 6.924 0 0 0 2.156-2.61c.501-1.05.761-2.072.761-3.066V87.532c0-1.124.233-1.988.706-2.583.474-.594 1.152-.9 2.063-.9h5.035c.92 0 1.663.306 2.211.928.558.623.827 1.468.827 2.555v27.201c0 .79-.214 1.403-.632 1.84-.427.436-1.04.65-1.848.65h-5.863c-.79 0-1.402-.214-1.839-.65-.437-.437-.65-1.05-.65-1.84v-2.322c-1.031 1.681-2.425 3.075-4.172 4.19-1.746 1.114-3.809 1.672-6.168 1.672-3.038 0-5.426-.632-7.144-1.905zm-48.643.39c-.39-.316-.576-.753-.576-1.329 0-.353.065-.706.195-1.077l12.662-36.046c.483-1.328 1.422-1.988 2.815-1.988h7.85c1.459 0 2.416.66 2.871 1.988l12.607 36.046c.13.371.195.724.195 1.077 0 .576-.195 1.013-.576 1.329-.39.316-.938.474-1.663.474h-6.14c-.79 0-1.497-.177-2.119-.53-.622-.353-1.04-.855-1.254-1.523l-1.877-5.528h-11.78l-1.932 5.528c-.26.696-.613 1.217-1.078 1.551-.464.334-1.059.502-1.793.502h-6.744c-.716 0-1.273-.158-1.663-.474zm23.114-15.673-4.088-12.328-3.707 12.328zm60.692-37.95c-.437-.436-.65-1.05-.65-1.84V25.373c0-.809.213-1.431.65-1.849.437-.427 1.05-.632 1.84-.632h16.805c2.62 0 4.905.66 6.856 1.979 1.951 1.32 3.447 3.084 4.478 5.295 1.031 2.211 1.552 4.636 1.552 7.275 0 2.638-.586 5.128-1.738 7.367-1.16 2.239-2.796 4.013-4.896 5.323-2.1 1.31-4.496 1.96-7.19 1.96h-7.358v9.234c0 .79-.214 1.403-.632 1.84-.418.437-1.04.65-1.848.65h-6.03c-.79 0-1.402-.213-1.84-.65zm16.713-20.744c1.514 0 2.685-.446 3.512-1.338.826-.892 1.244-2.165 1.244-3.8 0-1.533-.418-2.75-1.254-3.66-.836-.91-2.006-1.366-3.493-1.366h-6.354V42.41h6.354zm-42.029 20.744c-.436-.436-.65-1.05-.65-1.84V33.334h-8.24c-.79 0-1.403-.213-1.84-.65-.436-.437-.65-1.05-.65-1.84v-5.471c0-.809.214-1.431.65-1.849.437-.427 1.05-.632 1.84-.632h27.48c.808 0 1.43.214 1.849.632.427.427.631 1.04.631 1.849v5.472c0 .79-.213 1.402-.631 1.839-.428.437-1.04.65-1.85.65h-8.24v27.973c0 .79-.213 1.403-.631 1.84-.428.436-1.04.65-1.849.65h-6.03c-.789 0-1.402-.214-1.839-.65zm-47.11-1.189c-3.363-1.886-6.02-4.468-7.961-7.738-1.942-3.27-2.918-6.894-2.918-10.88 0-3.985.976-7.636 2.918-10.915 1.941-3.28 4.598-5.862 7.961-7.757 3.363-1.886 7.089-2.834 11.185-2.834 4.097 0 7.795.948 11.158 2.834 3.363 1.886 6.02 4.478 7.98 7.757 1.951 3.28 2.927 6.921 2.927 10.916s-.976 7.608-2.927 10.879c-1.95 3.27-4.608 5.852-7.98 7.738-3.363 1.886-7.08 2.834-11.158 2.834-4.078 0-7.822-.948-11.185-2.834zm2.128-12.857c.873 1.672 2.1 2.954 3.678 3.874 1.58.91 3.373 1.365 5.38 1.365 2.006 0 3.8-.455 5.36-1.365 1.57-.91 2.787-2.202 3.65-3.874.865-1.673 1.301-3.586 1.301-5.76s-.436-4.097-1.3-5.779c-.864-1.681-2.081-2.972-3.651-3.901-1.57-.92-3.354-1.385-5.36-1.385-2.007 0-3.8.465-5.38 1.385-1.579.92-2.805 2.22-3.678 3.901-.874 1.682-1.31 3.605-1.31 5.779s.436 4.097 1.31 5.76z"/>
</svg>
