<?xml version="1.0" encoding="UTF-8" standalone="no"?>
<!-- Designed by Adharma Collective (@adhrcollective) -->
<svg xmlns="http://www.w3.org/2000/svg" xmlns:svg="http://www.w3.org/2000/svg" version="1.1" width="256" height="384" viewBox="0 0 256 384" preserveAspectRatio="xMidYMid meet">
	<path fill="#e38171" d="m129.385 57.33-.66-.28h-.72c-28.67 0-49.89 6.51-57.68 9.31l-1.31.47-.65 1.23c-4.77 9.08-20.53 41.38-23.05 75.9-2.25 30.84 7.89 68.58 12.35 83.38l.81 2.7 2.82-.17c7.34-.44 21.81-1.76 36.3-5.64.44-.12.89-.18 1.33-.18 2.31 0 4.35 1.56 4.95 3.8 0 0 5.85-1.42 9.5-2.76 5.27-1.94 9.37-4.03 9.37-4.03l.99-.57c-15.4-9.46-25.8-20.09-26.22-20.52a5.144 5.144 0 0 1-1.41-3.82c.03-.67.9-16.46 2.92-29.73 1.26-8.31 3.82-17.1 5.74-23.01l.71-2.19-1.71-1.55a36.015 36.015 0 0 1-11.74-26.58c0-19.83 16.13-35.96 35.95-35.96h.81l.73-.35c2.18-1.04 5.82-4.3 5.62-9.95-.19-5.67-3.72-8.65-5.77-9.51z"/>
	<path fill="#f0b7b1" d="m198.325 227.34-.82 2.71-2.82-.17c-10.15-.6-29.81-2.59-47.28-9.13-18.87-7.05-34.03-19.92-39.66-25.14l-.9-.83.69-.76s5.1 4.28 21.73 4.28c10.11 0 17.52-1.58 21.77-2.82a5.31 5.31 0 0 0 3.76-5.69c-.47-4.08-.99-6.89-.99-6.89l-.11-1.01c1.36-.15 2.58-.83 3.43-1.89a5.04 5.04 0 0 0 1.09-3.77c-.38-3.42-.81-6.72-1.28-9.79-1.27-8.32-3.82-17.1-5.74-23.01l-.71-2.19 1.71-1.56c7.48-6.79 11.75-16.48 11.75-26.58 0-19.83-16.12-35.97-35.96-35.97l.58-1.01.52-.26c1.95-.93 5.22-3.87 5.03-8.99-.17-5.17-3.32-7.84-5.15-8.61l-.47-.19v-1.02c28.43.08 49.45 6.54 57.17 9.31l1.31.47.64 1.24c4.78 9.08 20.54 41.38 23.05 75.89 2.25 30.78-7.89 68.55-12.36 83.37z"/>
	<path fill="#ffffff" d="M129.275 199.32c-16.81 0-22.17-4.33-22.38-4.51l-.4-.34.04-.52c.01-.17 1.31-17.14 2.65-25.97 1.92-12.6 7.22-26.82 7.27-26.96a5.14 5.14 0 0 0-2.08-6.12 25.729 25.729 0 0 1-12.07-21.8c0-14.18 11.53-25.71 25.71-25.71 14.18 0 25.7 11.53 25.7 25.71 0 7.29-3.11 14.27-8.54 19.14-1.02.92-2.12 1.76-3.27 2.5l-.12.07a5.133 5.133 0 0 0-2.23 6.23c.55 1.5 5.45 14.95 7.27 26.95.45 2.96.86 6.11 1.22 9.38a5.12 5.12 0 0 0 5.09 4.56c.19 0 .38 0 .57-.03l.94-.1.17.93c.02.12.53 2.89 1 6.96a6.286 6.286 0 0 1-4.49 6.79c-4.48 1.31-11.94 2.86-22.06 2.86z"/>
	<path fill="#a8351a" d="M221.925 143.15c-3.16-43.38-25.08-81.84-26.01-83.45a6.195 6.195 0 0 0-2.88-2.57c-.33-.14-8.3-3.56-21.76-6.6l-1.68-.38-.27-1.7c-3.22-19.95-20.6-34.43-41.32-34.43s-38.1 14.48-41.32 34.43l-.27 1.7-1.68.38c-13.49 3.04-21.42 6.45-21.76 6.6-1.2.52-2.22 1.43-2.88 2.57-.93 1.62-22.86 40.07-26.02 83.45-3.01 41.25 14.18 91.97 14.91 94.11a6.158 6.158 0 0 0 5.84 4.15c.92 0 22.9-.17 45.7-6.28 3.27-.88 5.22-4.26 4.34-7.53a6.152 6.152 0 0 0-7.53-4.34c-14.39 3.86-28.79 5.17-36.1 5.61l-2.01.12-.58-1.93c-4.45-14.74-14.55-52.34-12.31-83.01 2.5-34.32 18.18-66.46 22.93-75.49l.46-.88.93-.34c7.74-2.78 28.83-9.26 57.34-9.26 28.51 0 49.59 6.47 57.34 9.25l.93.34.46.88c4.75 9.04 20.43 41.18 22.93 75.5 2.23 30.61-7.87 68.24-12.32 83l-.58 1.93-2.01-.12c-10.1-.6-29.64-2.58-46.99-9.07-18.7-6.99-33.73-19.77-39.32-24.94l-.9-.83s1.29-17 2.64-25.89c1.9-12.49 7.17-26.61 7.22-26.74a6.165 6.165 0 0 0-2.49-7.36c-1.19-.75-2.34-1.61-3.39-2.56a24.728 24.728 0 0 1-8.2-18.38c0-13.61 11.08-24.69 24.69-24.69 13.61 0 24.68 11.08 24.68 24.69 0 7-2.99 13.7-8.21 18.38-.98.88-2.04 1.69-3.14 2.4l-.1.06c-2.59 1.51-3.71 4.65-2.64 7.49.55 1.48 5.4 14.82 7.21 26.71.45 2.94.86 6.08 1.22 9.34a6.14 6.14 0 0 0 6.79 5.43 6.1 6.1 0 0 0 4.12-2.27 6.097 6.097 0 0 0 1.31-4.52c-.38-3.43-.81-6.74-1.28-9.83-1.28-8.39-3.85-17.23-5.78-23.17l-.51-1.57 1.22-1.11a37.048 37.048 0 0 0 12.08-27.34c0-20.39-16.59-36.98-36.98-36.98-20.39 0-36.97 16.59-36.97 36.98 0 10.39 4.4 20.35 12.08 27.34l1.22 1.11-.51 1.57c-1.93 5.94-4.5 14.79-5.78 23.17-2.04 13.38-2.9 29.16-2.93 29.83-.09 1.69.53 3.35 1.7 4.58.8.84 19.89 20.61 46.66 30.62 26.47 9.89 56.46 10.1 57.71 10.1h.03c2.63 0 4.96-1.67 5.81-4.15.73-2.14 17.92-52.85 14.91-94.1zm-93.92-97.36c-12.92 0-26.55 1.79-26.55 1.79 1.79-12.03 14.59-21.27 26.55-21.27s24.75 9.24 26.55 21.27c0 0-13.62-1.79-26.55-1.79z"/>
	<path fill="#a8351a" d="M198.845 367.88c-.51-.64-.76-1.57-.76-2.78v-15.34c0-2.95-.44-5.08-1.31-6.38-.87-1.3-2.3-1.95-4.28-1.95-1.31 0-2.46.39-3.46 1.17-1 .78-1.77 1.76-2.32 2.93-.55 1.17-.82 2.3-.82 3.39v16.18c0 1.21-.25 2.14-.76 2.78-.51.64-1.24.97-2.22.97h-5.41c-.99 0-1.78-.33-2.38-1-.59-.66-.89-1.58-.89-2.75v-42.34c0-.87.23-1.54.7-1.99.47-.46 1.12-.68 1.98-.68h6.3c.87 0 1.54.23 1.99.68.46.46.68 1.12.68 1.99v14.78c1.03-1.68 2.43-3.07 4.19-4.16 1.76-1.09 3.88-1.63 6.33-1.63 3.27 0 5.88.71 7.83 2.13 1.95 1.42 3.36 3.45 4.21 6.11.85 2.66 1.28 5.94 1.28 9.84v15.28c0 1.15-.34 2.06-1.03 2.74-.68.67-1.53 1.01-2.54 1.01h-5.11c-.97 0-1.71-.32-2.22-.97zm-50.15-.03c-.59-.66-.89-1.58-.89-2.75v-22.72h-6.39c-.85 0-1.51-.23-1.98-.7s-.7-1.12-.7-1.98v-3.86c0-.87.23-1.54.7-1.99.47-.46 1.12-.68 1.98-.68h6.39v-7.79c0-.87.23-1.54.7-1.99.47-.45 1.12-.68 1.98-.68h6.3c.87 0 1.54.23 1.99.68.46.46.68 1.12.68 1.99v7.79h6.39c.87 0 1.54.23 1.99.68.46.46.68 1.12.68 1.99v3.86c0 .85-.23 1.51-.68 1.98-.46.47-1.12.7-1.99.7h-6.39v22.72c0 1.21-.25 2.14-.76 2.78-.51.64-1.24.97-2.22.97h-5.41c-.99 0-1.78-.33-2.38-1zm-44.58.07c-1.85-1.37-3.16-3.34-3.91-5.92s-1.13-5.85-1.13-9.81v-15.28c0-1.15.34-2.06 1.03-2.74.68-.67 1.53-1.01 2.54-1.01h5.11c.97 0 1.71.32 2.22.97.51.64.76 1.57.76 2.78v15.34c0 1.98.19 3.56.56 4.73.38 1.17.97 2.02 1.78 2.54.81.53 1.89.79 3.24.79 1.35 0 2.46-.37 3.46-1.11 1-.74 1.77-1.68 2.32-2.81.55-1.13.82-2.23.82-3.3v-16.18c0-1.21.25-2.14.76-2.78.51-.64 1.24-.97 2.22-.97h5.41c.99 0 1.78.33 2.38 1 .59.66.89 1.58.89 2.75v29.26c0 .85-.23 1.51-.68 1.98-.46.47-1.12.7-1.99.7h-6.3c-.85 0-1.51-.23-1.98-.7s-.7-1.12-.7-1.98v-2.5c-1.11 1.8-2.61 3.31-4.49 4.51-1.88 1.2-4.09 1.8-6.63 1.8-3.27 0-5.83-.68-7.69-2.05zm-52.32.42c-.42-.34-.62-.81-.62-1.43 0-.38.07-.76.21-1.16l13.62-38.77c.52-1.43 1.53-2.14 3.03-2.14h8.44c1.57 0 2.6.71 3.09 2.14l13.56 38.77c.14.4.21.78.21 1.16 0 .62-.21 1.09-.62 1.43-.42.34-1.01.51-1.78.51h-6.6c-.85 0-1.61-.19-2.27-.56-.66-.38-1.12-.92-1.35-1.64l-2.02-5.95h-12.67l-2.08 5.95c-.28.75-.66 1.31-1.16 1.67-.5.36-1.14.53-1.93.53h-7.26c-.77 0-1.37-.17-1.78-.51zm24.86-16.86-4.4-13.26-3.98 13.26zm81.65-40.82c-.47-.47-.7-1.12-.7-1.98v-38.65c0-.87.23-1.54.7-1.99.46-.46 1.12-.68 1.98-.68h18.08c2.81 0 5.27.71 7.37 2.13 2.1 1.42 3.71 3.32 4.82 5.69 1.11 2.38 1.67 4.99 1.67 7.82s-.62 5.52-1.87 7.92c-1.25 2.41-3 4.32-5.26 5.72-2.26 1.41-4.84 2.11-7.73 2.11h-7.91v9.93c0 .85-.23 1.51-.68 1.98-.45.47-1.12.7-1.99.7h-6.48c-.85 0-1.51-.23-1.98-.7zm17.97-22.32c1.63 0 2.88-.48 3.78-1.44.89-.96 1.34-2.32 1.34-4.09 0-1.64-.45-2.96-1.35-3.94-.9-.98-2.16-1.47-3.76-1.47h-6.84v10.94h6.84zm-45.21 22.32c-.47-.47-.7-1.12-.7-1.98v-30.09h-8.86c-.85 0-1.51-.23-1.98-.7s-.7-1.12-.7-1.98v-5.89c0-.87.23-1.54.7-1.99.47-.46 1.12-.68 1.98-.68h29.55c.87 0 1.54.23 1.99.68.46.46.68 1.12.68 1.99v5.89c0 .85-.23 1.51-.68 1.98-.46.47-1.12.7-1.99.7h-8.86v30.09c0 .85-.23 1.51-.68 1.98-.46.47-1.12.7-1.99.7h-6.48c-.85 0-1.51-.23-1.98-.7zm-50.67-1.27c-3.62-2.03-6.47-4.81-8.56-8.33-2.09-3.52-3.14-7.42-3.14-11.7 0-4.28 1.04-8.22 3.14-11.74 2.09-3.53 4.95-6.31 8.56-8.34 3.62-2.03 7.63-3.05 12.03-3.05 4.4 0 8.38 1.02 12 3.05 3.62 2.03 6.48 4.81 8.58 8.34 2.1 3.53 3.15 7.44 3.15 11.74s-1.05 8.18-3.15 11.7c-2.1 3.52-4.96 6.29-8.58 8.33-3.62 2.03-7.62 3.05-12 3.05s-8.41-1.02-12.03-3.05zm2.29-13.83c.94 1.79 2.26 3.18 3.95 4.16 1.69.98 3.62 1.47 5.78 1.47s4.08-.49 5.77-1.47c1.68-.98 2.99-2.37 3.92-4.16.93-1.79 1.4-3.86 1.4-6.2 0-2.34-.47-4.41-1.4-6.21-.93-1.8-2.24-3.2-3.92-4.19-1.69-.99-3.61-1.49-5.77-1.49-2.16 0-4.09.5-5.78 1.49-1.69.99-3.01 2.39-3.95 4.19-.94 1.8-1.41 3.88-1.41 6.21s.47 4.41 1.41 6.2z"/>
</svg>
