<?xml version="1.0" encoding="UTF-8" standalone="no"?>
<svg xmlns="http://www.w3.org/2000/svg" xmlns:svg="http://www.w3.org/2000/svg" version="1.1" width="512" height="256" viewBox="0 0 512 256" preserveAspectRatio="xMidYMid meet">
	<path fill="#e38171" d="m161.383 56.769-.67-.28h-.722c-28.922 0-50.333 6.593-58.2 9.431l-1.317.475-.647 1.241c-4.813 9.184-20.72 41.883-23.256 76.816-2.267 31.21 7.964 69.413 12.464 84.392l.82 2.74 2.85-.172c7.402-.442 22.014-1.78 36.627-5.709a5.21 5.21 0 0 1 1.348-.183 5.17 5.17 0 0 1 4.986 3.842s5.903-1.436 9.583-2.796c5.32-1.964 9.454-4.079 9.454-4.079l1.004-.572c-15.54-9.583-26.03-20.331-26.451-20.774a5.228 5.228 0 0 1-1.425-3.863c.033-.67.907-16.663 2.947-30.088 1.273-8.417 3.852-17.31 5.795-23.288l.723-2.223-1.727-1.576c-7.532-6.874-11.85-16.684-11.85-26.904 0-20.073 16.275-36.4 36.272-36.4h.82l.734-.357c2.201-1.046 5.87-4.36 5.676-10.068-.194-5.742-3.755-8.752-5.827-9.627z" />
	<path fill="#f0b7b1" d="m230.947 228.844-.82 2.74-2.85-.172c-10.24-.615-30.076-2.622-47.71-9.238-19.037-7.133-34.328-20.17-40.016-25.447l-.906-.841.701-.767s5.137 4.328 21.93 4.328c10.197 0 17.676-1.597 21.971-2.85a5.349 5.349 0 0 0 3.788-5.751c-.475-4.133-1.004-6.972-1.004-6.972l-.118-1.025a5.177 5.177 0 0 0 4.565-5.72 236.86 236.86 0 0 0-1.285-9.917c-1.273-8.429-3.852-17.31-5.795-23.289l-.723-2.212 1.716-1.586c7.543-6.875 11.86-16.685 11.86-26.904 0-20.073-16.274-36.4-36.282-36.4l.583-1.026.529-.26c1.964-.938 5.266-3.917 5.083-9.097-.173-5.234-3.346-7.942-5.191-8.708l-.475-.195V56.5c28.685.087 49.89 6.616 57.682 9.421l1.317.475.647 1.252c4.824 9.184 20.72 41.883 23.256 76.816 2.267 31.156-7.964 69.39-12.464 84.38z" />
	<path fill="#ffffff" d="M161.275 200.483c-16.965 0-22.36-4.382-22.587-4.565l-.41-.345.043-.53c.01-.172 1.317-17.352 2.676-26.288 1.932-12.756 7.285-27.141 7.339-27.292.852-2.288-.033-4.889-2.094-6.195a24.714 24.714 0 0 1-3.561-2.698 26.084 26.084 0 0 1-8.623-19.37c0-14.354 11.634-26.02 25.944-26.02 14.31 0 25.932 11.677 25.932 26.02 0 7.38-3.14 14.438-8.622 19.37a24.985 24.985 0 0 1-3.303 2.526l-.118.075a5.188 5.188 0 0 0-2.245 6.303c.561 1.521 5.493 15.13 7.338 27.27.454 3 .874 6.184 1.23 9.486a5.175 5.175 0 0 0 5.137 4.62c.195 0 .378 0 .572-.033l.95-.108.173.939c.021.118.54 2.924 1.014 7.036.356 3.108-1.543 6-4.532 6.874-4.522 1.317-12.055 2.892-22.264 2.892z" />
	<path fill="#a8351a" d="M254.764 143.632c-3.184-43.912-25.307-82.838-26.246-84.467a6.29 6.29 0 0 0-2.902-2.601c-.335-.151-8.375-3.604-21.95-6.68l-1.695-.389-.28-1.726c-3.25-20.192-20.786-34.847-41.69-34.847-20.903 0-38.44 14.655-41.688 34.847l-.28 1.726-1.695.389c-13.608 3.076-21.616 6.529-21.95 6.68a6.232 6.232 0 0 0-2.903 2.6c-.939 1.641-23.062 40.556-26.246 84.468-3.032 41.753 14.31 93.09 15.044 95.248a6.21 6.21 0 0 0 5.892 4.198c.928 0 23.105-.173 46.113-6.357 3.303-.884 5.267-4.305 4.382-7.618a6.2 6.2 0 0 0-5.99-4.609c-.54 0-1.079.076-1.607.216-14.526 3.907-29.052 5.234-36.423 5.677l-2.028.118-.583-1.953c-4.49-14.925-14.677-52.977-12.422-84.014 2.526-34.738 18.346-67.265 23.138-76.416l.464-.885.939-.335c7.813-2.816 29.084-9.367 57.854-9.367 28.771 0 50.042 6.55 57.855 9.367l.939.335.464.885c4.792 9.14 20.612 41.678 23.137 76.416 2.256 30.983-7.942 69.078-12.42 84.014l-.584 1.953-2.028-.118c-10.199-.615-29.904-2.612-47.409-9.173-18.864-7.069-34.037-20.008-39.68-25.242l-.907-.842s1.305-17.213 2.665-26.202c1.921-12.637 7.23-26.936 7.285-27.066 1.025-2.752-.033-5.892-2.515-7.446a25.084 25.084 0 0 1-11.698-21.195c0-13.781 11.18-24.994 24.907-24.994s24.897 11.213 24.897 24.994c0 7.09-3.022 13.867-8.277 18.605a25.466 25.466 0 0 1-3.173 2.428l-.097.054c-2.612 1.532-3.734 4.705-2.666 7.576.55 1.5 5.45 15 7.274 27.033.453 2.978.863 6.162 1.23 9.453a6.204 6.204 0 0 0 6.162 5.537c.227 0 .453-.011.68-.033a6.13 6.13 0 0 0 4.155-2.298 6.187 6.187 0 0 0 1.316-4.576c-.388-3.475-.82-6.82-1.294-9.95-1.285-8.493-3.886-17.44-5.828-23.45l-.518-1.587 1.23-1.122c7.749-7.08 12.195-17.17 12.195-27.681 0-20.634-16.738-37.426-37.307-37.426-20.57 0-37.307 16.792-37.307 37.426 0 10.511 4.446 20.601 12.184 27.67l1.23 1.122-.518 1.587c-1.953 6.01-4.543 14.968-5.828 23.45-2.06 13.544-2.924 29.516-2.957 30.195a6.192 6.192 0 0 0 1.716 4.63c.81.853 20.073 20.86 47.085 30.983 26.71 10.015 56.959 10.22 58.232 10.22h.032a6.189 6.189 0 0 0 5.86-4.209c.745-2.169 18.076-53.494 15.044-95.248zm-94.773-98.55c-13.037 0-26.785 1.802-26.785 1.802 1.802-12.173 14.72-21.53 26.785-21.53s24.972 9.357 26.785 21.53c0 0-13.749-1.802-26.785-1.802z" />
	<path fill="#a8351a" d="M435.472 194.85c-.54-.691-.81-1.684-.81-2.968v-16.393c0-3.151-.463-5.428-1.402-6.82-.928-1.392-2.46-2.083-4.576-2.083-1.403 0-2.633.42-3.702 1.252a8.49 8.49 0 0 0-2.482 3.13c-.583 1.251-.874 2.46-.874 3.625v17.289c0 1.295-.27 2.288-.81 2.968-.539.69-1.327 1.036-2.363 1.036h-5.784c-1.058 0-1.91-.357-2.547-1.069-.637-.712-.95-1.694-.95-2.935v-45.25c0-.928.249-1.64.745-2.126s1.198-.734 2.115-.734h6.734c.928 0 1.64.248 2.126.734s.734 1.198.734 2.126v15.788c1.1-1.802 2.59-3.28 4.479-4.446 1.888-1.165 4.144-1.748 6.766-1.748 3.497 0 6.292.755 8.375 2.277 2.082 1.51 3.582 3.69 4.5 6.529.906 2.838 1.37 6.345 1.37 10.522v16.339c0 1.23-.367 2.201-1.1 2.924-.734.723-1.64 1.08-2.72 1.08h-5.46c-1.037 0-1.824-.346-2.364-1.037zm-53.592-.033c-.637-.712-.95-1.694-.95-2.935V167.6h-6.83c-.907 0-1.62-.248-2.116-.744-.496-.497-.745-1.198-.745-2.115v-4.134c0-.928.249-1.64.745-2.126.496-.485 1.198-.733 2.115-.733h6.831v-8.332c0-.928.249-1.64.745-2.126.496-.485 1.198-.734 2.115-.734h6.734c.928 0 1.64.249 2.126.734.486.486.734 1.198.734 2.126v8.332h6.831c.928 0 1.64.248 2.126.733.486.486.734 1.198.734 2.126v4.134c0 .906-.248 1.618-.734 2.115-.485.496-1.198.744-2.126.744h-6.83v24.282c0 1.295-.27 2.288-.81 2.968-.54.69-1.328 1.036-2.364 1.036h-5.784c-1.058 0-1.91-.357-2.547-1.069zm-47.656.076c-1.986-1.457-3.378-3.572-4.177-6.324-.81-2.752-1.208-6.249-1.208-10.49v-16.338c0-1.23.367-2.202 1.1-2.925.734-.723 1.64-1.08 2.72-1.08h5.46c1.037 0 1.824.346 2.364 1.037.54.69.81 1.683.81 2.968v16.392c0 2.115.204 3.799.604 5.05.399 1.253 1.036 2.16 1.91 2.72.863.561 2.018.842 3.464.842 1.446 0 2.633-.4 3.702-1.187a8.07 8.07 0 0 0 2.482-3c.582-1.209.874-2.385.874-3.53V161.74c0-1.295.27-2.287.81-2.967.539-.69 1.327-1.036 2.363-1.036h5.784c1.057 0 1.91.356 2.547 1.068.636.712.95 1.694.95 2.935v31.264c0 .907-.249 1.619-.734 2.115-.486.497-1.198.745-2.126.745h-6.734c-.907 0-1.62-.248-2.116-.745-.496-.496-.744-1.198-.744-2.115v-2.665c-1.187 1.931-2.785 3.529-4.803 4.813-2.018 1.284-4.37 1.92-7.09 1.92-3.496 0-6.237-.733-8.212-2.19zm-55.912.442c-.443-.356-.67-.863-.67-1.521 0-.4.076-.82.227-1.241l14.558-41.44c.55-1.522 1.63-2.289 3.238-2.289h9.022c1.672 0 2.773.767 3.302 2.288l14.493 41.44c.151.421.227.842.227 1.242 0 .658-.227 1.165-.67 1.521-.442.356-1.078.54-1.91.54h-7.057c-.907 0-1.727-.205-2.428-.604a3.052 3.052 0 0 1-1.446-1.749l-2.159-6.356h-13.533l-2.223 6.356c-.302.81-.712 1.403-1.24 1.78-.53.379-1.22.573-2.062.573h-7.76c-.83 0-1.456-.184-1.91-.54zm26.569-18.022-4.705-14.17-4.263 14.17h8.957zm69.769-43.62c-.497-.497-.745-1.198-.745-2.115V90.267c0-.928.248-1.64.745-2.126.496-.486 1.197-.734 2.115-.734h19.317c3.01 0 5.633.755 7.878 2.277 2.245 1.51 3.96 3.54 5.148 6.086 1.187 2.547 1.78 5.332 1.78 8.353 0 3.022-.669 5.893-1.996 8.472-1.338 2.568-3.205 4.608-5.623 6.119-2.417 1.5-5.169 2.255-8.266 2.255h-8.45v10.608c0 .907-.248 1.62-.734 2.116s-1.198.744-2.126.744h-6.928c-.907 0-1.619-.248-2.115-.744zm19.209-23.85c1.737 0 3.086-.518 4.036-1.543.95-1.025 1.435-2.482 1.435-4.37 0-1.76-.485-3.163-1.446-4.21-.96-1.046-2.298-1.575-4.014-1.575h-7.306v11.698h7.306zm-48.326 23.85c-.496-.497-.744-1.198-.744-2.115v-32.16h-9.475c-.907 0-1.62-.248-2.116-.745-.496-.496-.744-1.197-.744-2.115v-6.291c0-.928.248-1.64.744-2.126.497-.486 1.198-.734 2.116-.734H366.9c.928 0 1.64.248 2.126.734.486.485.734 1.198.734 2.126v6.291c0 .907-.248 1.619-.734 2.115-.486.497-1.198.745-2.126.745h-9.464v32.16c0 .906-.248 1.618-.734 2.115-.486.496-1.198.744-2.126.744h-6.928c-.907 0-1.62-.248-2.116-.744zm-54.142-1.36c-3.863-2.17-6.917-5.137-9.151-8.903-2.234-3.756-3.356-7.932-3.356-12.508 0-4.576 1.111-8.784 3.356-12.55 2.234-3.767 5.288-6.745 9.151-8.915 3.864-2.169 8.148-3.259 12.853-3.259s8.957 1.09 12.82 3.26c3.864 2.169 6.918 5.147 9.174 8.913 2.245 3.767 3.367 7.954 3.367 12.551s-1.122 8.741-3.367 12.508c-2.245 3.755-5.299 6.723-9.173 8.903-3.864 2.17-8.137 3.26-12.82 3.26-4.684 0-8.99-1.09-12.854-3.26zm2.45-14.774c1.004 1.921 2.417 3.4 4.23 4.446 1.813 1.047 3.875 1.576 6.184 1.576 2.31 0 4.36-.529 6.162-1.576 1.802-1.046 3.194-2.536 4.198-4.446.993-1.92 1.49-4.122 1.49-6.626 0-2.504-.497-4.716-1.49-6.637-.993-1.92-2.396-3.421-4.198-4.479-1.802-1.057-3.853-1.586-6.162-1.586-2.31 0-4.37.529-6.184 1.586-1.813 1.058-3.216 2.558-4.23 4.479-1.014 1.921-1.51 4.144-1.51 6.637 0 2.493.506 4.705 1.51 6.626z" />
</svg>
